<svg id="Layer_1" data-name="Layer 1" xmlns="http://www.w3.org/2000/svg" viewBox="0 0 114.64 36"><defs><style>.cls-1{fill:#003263;}.cls-1,.cls-2{fill-rule:evenodd;}.cls-2,.cls-3{fill:#767661;}</style></defs><title>Logo</title><path class="cls-1" d="M12.74,11.15H22.2l-1.14,1.51v11l1.35,1.43H12.79L14,23.61V12.54l-1.21-1.39Zm0,13.93A10.74,10.74,0,1,1,27.12,11.16h-5A10.74,10.74,0,1,1,7.42,25.08Z"/><path class="cls-2" d="M46.06,23.32a3.07,3.07,0,0,1,0-.53,1.47,1.47,0,0,1,.18-.46,1,1,0,0,1,.34-.33,1,1,0,0,1,.52-.13,1,1,0,0,1,.52.13,1,1,0,0,1,.34.33,1.47,1.47,0,0,1,.18.46,3.07,3.07,0,0,1,.05.53,3.17,3.17,0,0,1-.05.53,1.83,1.83,0,0,1-.18.46,1,1,0,0,1-.34.32,1,1,0,0,1-.52.12,1,1,0,0,1-.52-.12,1,1,0,0,1-.34-.32,1.83,1.83,0,0,1-.18-.46,3.17,3.17,0,0,1,0-.53Zm-1.23,0a2.74,2.74,0,0,0,.16,1,2.22,2.22,0,0,0,.47.75,2.11,2.11,0,0,0,.73.46,2.65,2.65,0,0,0,1,.17,2.59,2.59,0,0,0,1-.17,2.06,2.06,0,0,0,.74-.46,2.22,2.22,0,0,0,.47-.75,3.05,3.05,0,0,0,0-1.95,2.08,2.08,0,0,0-.47-.74,2,2,0,0,0-.74-.48,2.4,2.4,0,0,0-1-.17,2.45,2.45,0,0,0-1,.17,2,2,0,0,0-.73.48,2.08,2.08,0,0,0-.47.74,2.76,2.76,0,0,0-.16,1Z"/><path class="cls-3" d="M50.54,21.89v3.67h1.24V21.89h.85v-.82h-.85V20.8a.55.55,0,0,1,.1-.39.47.47,0,0,1,.36-.12,3.46,3.46,0,0,1,.46,0v-.92l-.33,0H52a1.46,1.46,0,0,0-1.12.38,1.33,1.33,0,0,0-.38,1v.35H49.8v.82Z"/><polygon class="cls-3" points="55.71 19.36 55.71 25.56 57.07 25.56 57.07 19.36 55.71 19.36 55.71 19.36"/><path class="cls-3" d="M58.14,21.07v4.49h1.23V23.2a1.66,1.66,0,0,1,.23-1,.85.85,0,0,1,.73-.3.68.68,0,0,1,.62.28,1.59,1.59,0,0,1,.17.82v2.54h1.23V22.8a3,3,0,0,0-.08-.76,1.28,1.28,0,0,0-.25-.58,1.21,1.21,0,0,0-.5-.38,2.08,2.08,0,0,0-.81-.13,1.73,1.73,0,0,0-.76.18,1.36,1.36,0,0,0-.61.56h0v-.62Z"/><path class="cls-3" d="M64.25,24.1H63.07a1.54,1.54,0,0,0,.2.75,1.57,1.57,0,0,0,.48.48,2.08,2.08,0,0,0,.67.26,3.84,3.84,0,0,0,.76.08,3.67,3.67,0,0,0,.75-.08,1.93,1.93,0,0,0,.66-.25,1.37,1.37,0,0,0,.64-1.22,1,1,0,0,0-.44-.88,1.67,1.67,0,0,0-.46-.24l-.52-.14-.51-.12a4.46,4.46,0,0,1-.46-.11,1.14,1.14,0,0,1-.31-.17.34.34,0,0,1-.12-.27.29.29,0,0,1,.07-.22.48.48,0,0,1,.16-.13.59.59,0,0,1,.23-.05l.23,0a1.14,1.14,0,0,1,.57.13.54.54,0,0,1,.27.48h1.17a1.43,1.43,0,0,0-.66-1.13,1.91,1.91,0,0,0-.62-.24,4,4,0,0,0-.7-.06,4.17,4.17,0,0,0-.71.06,2.15,2.15,0,0,0-.63.23,1.32,1.32,0,0,0-.45.43,1.42,1.42,0,0,0-.16.72,1,1,0,0,0,.12.5,1.15,1.15,0,0,0,.32.34,1.88,1.88,0,0,0,.45.22l.53.14a7.72,7.72,0,0,1,1,.27c.25.1.37.23.37.42a.51.51,0,0,1-.08.28.67.67,0,0,1-.2.17,1.28,1.28,0,0,1-.26.1l-.27,0a1.34,1.34,0,0,1-.35,0,1,1,0,0,1-.3-.13.73.73,0,0,1-.22-.24.71.71,0,0,1-.07-.34Z"/><path class="cls-3" d="M72.17,25.56V21.07H70.93v2.35a1.69,1.69,0,0,1-.22,1,.86.86,0,0,1-.73.3.68.68,0,0,1-.62-.27,1.6,1.6,0,0,1-.17-.84V21.07H68v2.76a4.37,4.37,0,0,0,.07.76,1.63,1.63,0,0,0,.26.58,1.26,1.26,0,0,0,.5.37,2.1,2.1,0,0,0,.82.13,1.87,1.87,0,0,0,.76-.17,1.45,1.45,0,0,0,.61-.57h0v.63Z"/><path class="cls-3" d="M73.1,21.07v4.49h1.24v-2A2.47,2.47,0,0,1,74.4,23a1.09,1.09,0,0,1,.2-.45A.92.92,0,0,1,75,22.2a1.41,1.41,0,0,1,.57-.11l.24,0,.2,0V21a.82.82,0,0,0-.26,0,1.76,1.76,0,0,0-.46.06,1.87,1.87,0,0,0-.4.2,1.67,1.67,0,0,0-.34.31,1.36,1.36,0,0,0-.24.38h0v-.83Z"/><path class="cls-2" d="M76.43,22.45h1.23a.73.73,0,0,1,.24-.52.93.93,0,0,1,.58-.16,1.39,1.39,0,0,1,.3,0,.57.57,0,0,1,.25.08.37.37,0,0,1,.18.19.62.62,0,0,1,.07.31.33.33,0,0,1-.12.29.72.72,0,0,1-.33.15,2.69,2.69,0,0,1-.47.08l-.55.07a5.59,5.59,0,0,0-.56.12,1.51,1.51,0,0,0-.48.22,1.14,1.14,0,0,0-.35.4,1.27,1.27,0,0,0-.13.62,1.57,1.57,0,0,0,.11.6,1.14,1.14,0,0,0,.33.42,1.32,1.32,0,0,0,.49.24,2.23,2.23,0,0,0,.6.08,2.74,2.74,0,0,0,.81-.12,1.55,1.55,0,0,0,.7-.43,1.81,1.81,0,0,0,0,.23.83.83,0,0,0,.06.21h1.25a1,1,0,0,1-.12-.42,3.69,3.69,0,0,1,0-.58V22.22a1.07,1.07,0,0,0-.18-.65,1.19,1.19,0,0,0-.47-.39,2.1,2.1,0,0,0-.63-.18,4.15,4.15,0,0,0-.69-.05,3.81,3.81,0,0,0-.75.07,2.1,2.1,0,0,0-.66.25,1.41,1.41,0,0,0-.48.46,1.43,1.43,0,0,0-.22.72Zm2.85.91v.46a1.78,1.78,0,0,1,0,.28.9.9,0,0,1-.11.34.76.76,0,0,1-.3.29,1.08,1.08,0,0,1-.56.12l-.29,0a.85.85,0,0,1-.24-.09.58.58,0,0,1-.17-.18.61.61,0,0,1-.06-.28.62.62,0,0,1,.06-.29.69.69,0,0,1,.16-.18,1,1,0,0,1,.23-.12l.28-.07.3,0,.28,0a1,1,0,0,0,.25-.06.55.55,0,0,0,.2-.11Z"/><path class="cls-3" d="M81.47,21.07v4.49H82.7V23.2a1.67,1.67,0,0,1,.22-1,.87.87,0,0,1,.73-.3.66.66,0,0,1,.62.28,1.5,1.5,0,0,1,.17.82v2.54h1.24V22.8A3.55,3.55,0,0,0,85.6,22a1.4,1.4,0,0,0-.25-.58,1.18,1.18,0,0,0-.51-.38A2,2,0,0,0,84,21a1.77,1.77,0,0,0-.77.18,1.36,1.36,0,0,0-.61.56h0v-.62Z"/><path class="cls-3" d="M89.67,22.65h1.21a1.73,1.73,0,0,0-.21-.75,1.62,1.62,0,0,0-.48-.53,2,2,0,0,0-.66-.32,2.68,2.68,0,0,0-.76-.1,2.43,2.43,0,0,0-1,.18,1.89,1.89,0,0,0-.72.51,2.19,2.19,0,0,0-.46.77,3.34,3.34,0,0,0-.14,1,2.6,2.6,0,0,0,.16.93,2.27,2.27,0,0,0,.46.72,2.15,2.15,0,0,0,.71.47,2.6,2.6,0,0,0,.93.17,2.25,2.25,0,0,0,1.47-.47,2.09,2.09,0,0,0,.7-1.36H89.72a1.2,1.2,0,0,1-.31.67.89.89,0,0,1-.68.24.82.82,0,0,1-.48-.13,1.12,1.12,0,0,1-.32-.33,1.68,1.68,0,0,1-.17-.46,2.83,2.83,0,0,1-.05-.5,2.92,2.92,0,0,1,.05-.5,1.48,1.48,0,0,1,.18-.47,1,1,0,0,1,.33-.35.84.84,0,0,1,.49-.14.83.83,0,0,1,.91.78Z"/><path class="cls-2" d="M94.62,22.83h-2a1.17,1.17,0,0,1,0-.3,1.15,1.15,0,0,1,.16-.31.87.87,0,0,1,.32-.24,1,1,0,0,1,.49-.11.87.87,0,0,1,.67.25,1.42,1.42,0,0,1,.31.71Zm-2,.78h3.24a3.3,3.3,0,0,0-.09-1,2.47,2.47,0,0,0-.4-.85,1.92,1.92,0,0,0-.7-.59,2.07,2.07,0,0,0-1-.22,2.35,2.35,0,0,0-.94.18,2.16,2.16,0,0,0-.72.5,2.08,2.08,0,0,0-.47.75,2.62,2.62,0,0,0-.17.94,2.91,2.91,0,0,0,.16.95A2.2,2.2,0,0,0,92,25a2,2,0,0,0,.72.48,2.61,2.61,0,0,0,1,.17,2.38,2.38,0,0,0,1.3-.35,2.06,2.06,0,0,0,.8-1.15H94.69a.79.79,0,0,1-.33.4,1.12,1.12,0,0,1-.64.18,1.11,1.11,0,0,1-.8-.27,1.2,1.2,0,0,1-.3-.87Z"/><path class="cls-3" d="M33.73,14.62H32.41a2.19,2.19,0,0,0,.21,1,2.06,2.06,0,0,0,.58.69,2.5,2.5,0,0,0,.86.39,4.07,4.07,0,0,0,1,.13,3.75,3.75,0,0,0,1.12-.15,2.24,2.24,0,0,0,.8-.41,1.77,1.77,0,0,0,.5-.63,1.89,1.89,0,0,0,.16-.79,1.47,1.47,0,0,0-.22-.85,1.8,1.8,0,0,0-.52-.54,2.47,2.47,0,0,0-.62-.29,4.58,4.58,0,0,0-.48-.13l-.94-.24a3.76,3.76,0,0,1-.57-.19.79.79,0,0,1-.27-.21.63.63,0,0,1-.07-.3.58.58,0,0,1,.09-.33.73.73,0,0,1,.22-.21.79.79,0,0,1,.3-.12,1.24,1.24,0,0,1,.33,0,3.15,3.15,0,0,1,.46,0,1.16,1.16,0,0,1,.38.15.73.73,0,0,1,.26.29,1,1,0,0,1,.12.46h1.32a1.83,1.83,0,0,0-.2-.91,1.77,1.77,0,0,0-.55-.63,2.32,2.32,0,0,0-.8-.35,4,4,0,0,0-.93-.11,3.32,3.32,0,0,0-.83.11,2.35,2.35,0,0,0-.75.35,1.91,1.91,0,0,0-.54.59,1.67,1.67,0,0,0-.2.83,1.54,1.54,0,0,0,.16.73,1.66,1.66,0,0,0,.42.49,2.81,2.81,0,0,0,.59.33c.22.08.45.15.68.21l.67.17a5.14,5.14,0,0,1,.59.19,1.25,1.25,0,0,1,.42.26.53.53,0,0,1,.16.41.65.65,0,0,1-.12.39,1,1,0,0,1-.3.23,1.27,1.27,0,0,1-.39.12l-.39,0a2.33,2.33,0,0,1-.53-.06,2,2,0,0,1-.44-.2,1,1,0,0,1-.29-.36,1.07,1.07,0,0,1-.12-.53Z"/><path class="cls-2" d="M39.58,11.49v-1H38.35v1Zm-1.23.7v4.49h1.23V12.19Z"/><path class="cls-3" d="M40.55,12.19v4.49h1.23V14.33a1.68,1.68,0,0,1,.23-1,.85.85,0,0,1,.73-.3.68.68,0,0,1,.62.28,1.59,1.59,0,0,1,.17.82v2.54h1.23V13.92a3,3,0,0,0-.08-.76,1.33,1.33,0,0,0-.25-.58,1.12,1.12,0,0,0-.5-.37,1.9,1.9,0,0,0-.81-.14,1.73,1.73,0,0,0-.76.18,1.42,1.42,0,0,0-.61.56h0v-.62Z"/><path class="cls-2" d="M47.79,15.62a.84.84,0,0,1-.47-.12,1.05,1.05,0,0,1-.32-.31,1.47,1.47,0,0,1-.16-.43,2.63,2.63,0,0,1-.05-.49,1.84,1.84,0,0,1,.06-.47,1.19,1.19,0,0,1,.18-.41,1.06,1.06,0,0,1,.31-.29.93.93,0,0,1,.45-.1,1,1,0,0,1,.51.11.92.92,0,0,1,.32.3,1.28,1.28,0,0,1,.17.45,2.14,2.14,0,0,1,.05.52,1.49,1.49,0,0,1-.07.47,1.18,1.18,0,0,1-.19.39.91.91,0,0,1-.33.28,1,1,0,0,1-.46.1Zm2.23.77v-4.2H48.84v.6h0a1.33,1.33,0,0,0-.57-.56,1.71,1.71,0,0,0-.77-.16,1.84,1.84,0,0,0-.83.18,1.71,1.71,0,0,0-.6.5,2,2,0,0,0-.38.71,2.82,2.82,0,0,0-.12.83,3.6,3.6,0,0,0,.11.88,2.17,2.17,0,0,0,.34.72,1.93,1.93,0,0,0,.6.49,2.11,2.11,0,0,0,.87.17,1.84,1.84,0,0,0,.77-.17,1.24,1.24,0,0,0,.58-.53h0v.6a1.17,1.17,0,0,1-.23.78.89.89,0,0,1-.76.32,1.21,1.21,0,0,1-.58-.14.71.71,0,0,1-.34-.48H45.71a1.32,1.32,0,0,0,.21.65,1.44,1.44,0,0,0,.47.45,2.26,2.26,0,0,0,.62.26,3.23,3.23,0,0,0,.68.08,3,3,0,0,0,1.23-.21,1.86,1.86,0,0,0,.71-.51,1.47,1.47,0,0,0,.31-.64,3,3,0,0,0,.08-.62Z"/><path class="cls-2" d="M51,13.57h1.24a.68.68,0,0,1,.24-.52.9.9,0,0,1,.57-.16,1.48,1.48,0,0,1,.31,0,.5.5,0,0,1,.25.09.37.37,0,0,1,.17.18.55.55,0,0,1,.07.31.34.34,0,0,1-.11.3.84.84,0,0,1-.33.14,3,3,0,0,1-.48.08l-.55.07a5.41,5.41,0,0,0-.55.12,1.67,1.67,0,0,0-.49.22,1.12,1.12,0,0,0-.34.4,1.27,1.27,0,0,0-.13.62,1.34,1.34,0,0,0,.11.6,1.14,1.14,0,0,0,.33.42,1.35,1.35,0,0,0,.48.24,2,2,0,0,0,.6.08,2.86,2.86,0,0,0,.82-.12,1.47,1.47,0,0,0,.69-.43l0,.23.06.21h1.25a1,1,0,0,1-.12-.42,5.35,5.35,0,0,1,0-.58V13.34a1,1,0,0,0-.19-.65,1.3,1.3,0,0,0-.47-.39,2.1,2.1,0,0,0-.63-.18,5.34,5.34,0,0,0-.69,0,3.16,3.16,0,0,0-.74.08,1.73,1.73,0,0,0-.66.24,1.54,1.54,0,0,0-.49.46,1.43,1.43,0,0,0-.22.72Zm2.85.91v.46c0,.07,0,.16,0,.28a.81.81,0,0,1-.12.35.78.78,0,0,1-.29.28,1,1,0,0,1-.57.13,1.33,1.33,0,0,1-.28,0,.81.81,0,0,1-.25-.09.4.4,0,0,1-.16-.18.68.68,0,0,1,0-.56.49.49,0,0,1,.16-.19.71.71,0,0,1,.23-.12l.28-.07.29,0,.28,0,.25-.06a.56.56,0,0,0,.2-.12Z"/><path class="cls-2" d="M58.26,15.87a1,1,0,0,1-.51-.12,1.09,1.09,0,0,1-.33-.31,1.44,1.44,0,0,1-.19-.46,3.17,3.17,0,0,1,0-.53,3.1,3.1,0,0,1,0-.54,1.58,1.58,0,0,1,.18-.46,1,1,0,0,1,.84-.45.83.83,0,0,1,.49.13.9.9,0,0,1,.34.33,1.27,1.27,0,0,1,.19.46,2.33,2.33,0,0,1,.06.53,2.39,2.39,0,0,1-.06.53,1.23,1.23,0,0,1-.18.46,1,1,0,0,1-.33.31,1,1,0,0,1-.5.12ZM56,12.19v6.06h1.23V16.12h0a1.55,1.55,0,0,0,.57.51,1.85,1.85,0,0,0,.78.16,1.82,1.82,0,0,0,.86-.19,1.79,1.79,0,0,0,.61-.51,2.17,2.17,0,0,0,.38-.74,3.15,3.15,0,0,0,.12-.87,3.39,3.39,0,0,0-.12-.91,2.22,2.22,0,0,0-.38-.77,1.81,1.81,0,0,0-.63-.53,1.85,1.85,0,0,0-.91-.2,1.8,1.8,0,0,0-.77.16,1.38,1.38,0,0,0-.57.53h0v-.57Z"/><path class="cls-2" d="M62.39,14.44a3.07,3.07,0,0,1,0-.53,1.58,1.58,0,0,1,.18-.46,1,1,0,0,1,.34-.32.91.91,0,0,1,.52-.13.93.93,0,0,1,.52.13,1,1,0,0,1,.34.32,1.58,1.58,0,0,1,.18.46,3.07,3.07,0,0,1,0,.53,3.17,3.17,0,0,1,0,.53,1.7,1.7,0,0,1-.18.46,1,1,0,0,1-.34.32,1,1,0,0,1-.52.12,1,1,0,0,1-.52-.12,1,1,0,0,1-.34-.32,1.7,1.7,0,0,1-.18-.46,3.17,3.17,0,0,1,0-.53Zm-1.23,0a2.7,2.7,0,0,0,.16,1,2.22,2.22,0,0,0,.47.75,2.13,2.13,0,0,0,.73.47,2.65,2.65,0,0,0,1,.16,2.59,2.59,0,0,0,1-.16,2.08,2.08,0,0,0,.74-.47,2.22,2.22,0,0,0,.47-.75,3,3,0,0,0,0-1.94,2,2,0,0,0-.47-.75,2,2,0,0,0-.74-.48,2.59,2.59,0,0,0-1-.17,2.65,2.65,0,0,0-1,.17,2,2,0,0,0-.73.48,2,2,0,0,0-.47.75,2.7,2.7,0,0,0-.16,1Z"/><path class="cls-3" d="M66.6,12.19v4.49h1.24v-2a2.56,2.56,0,0,1,.06-.57,1.15,1.15,0,0,1,.2-.45,1,1,0,0,1,.38-.31,1.26,1.26,0,0,1,.57-.12l.24,0,.21,0V12.11a.93.93,0,0,0-.27,0,1.43,1.43,0,0,0-.46.07,1.25,1.25,0,0,0-.4.2,1.38,1.38,0,0,0-.34.3,1.52,1.52,0,0,0-.24.38h0v-.83Z"/><path class="cls-2" d="M73,14H71a1.18,1.18,0,0,1,0-.29,1.07,1.07,0,0,1,.16-.32,1.12,1.12,0,0,1,.32-.24A1,1,0,0,1,72,13a.86.86,0,0,1,.67.24A1.42,1.42,0,0,1,73,14Zm-2,.78h3.24a3.24,3.24,0,0,0-.09-1,2.52,2.52,0,0,0-.4-.86,2,2,0,0,0-.7-.59,2.07,2.07,0,0,0-1-.22,2.35,2.35,0,0,0-.94.18,2.16,2.16,0,0,0-.72.5,2.22,2.22,0,0,0-.47.75,2.62,2.62,0,0,0-.17.94,2.87,2.87,0,0,0,.16,1,2.2,2.2,0,0,0,.46.75,2.14,2.14,0,0,0,.72.49,2.65,2.65,0,0,0,1,.16,2.35,2.35,0,0,0,1.3-.34,2.13,2.13,0,0,0,.8-1.16H73.07a.79.79,0,0,1-.33.4,1.12,1.12,0,0,1-.64.18,1.11,1.11,0,0,1-.8-.27,1.24,1.24,0,0,1-.3-.87Z"/><path class="cls-3" d="M81.64,12.56H83a2.58,2.58,0,0,0-.29-1,2.4,2.4,0,0,0-.6-.7,2.57,2.57,0,0,0-.82-.43,3,3,0,0,0-1-.15,3.33,3.33,0,0,0-1.29.25,2.76,2.76,0,0,0-1,.7,3.05,3.05,0,0,0-.6,1,3.79,3.79,0,0,0-.21,1.29,3.7,3.7,0,0,0,.21,1.26,3.06,3.06,0,0,0,.6,1,2.87,2.87,0,0,0,1,.69,3.33,3.33,0,0,0,1.29.24,3,3,0,0,0,1-.18,2.25,2.25,0,0,0,.83-.5,2.61,2.61,0,0,0,.58-.8A3.37,3.37,0,0,0,83,14.29H81.7a1.81,1.81,0,0,1-.44,1,1.25,1.25,0,0,1-1,.38,1.67,1.67,0,0,1-.78-.17A1.42,1.42,0,0,1,79,15a2,2,0,0,1-.3-.66,3.22,3.22,0,0,1-.09-.76,3.5,3.5,0,0,1,.09-.8,1.86,1.86,0,0,1,.3-.67,1.34,1.34,0,0,1,.52-.48,1.55,1.55,0,0,1,.78-.18,1.39,1.39,0,0,1,.89.31,1.15,1.15,0,0,1,.31.35,1,1,0,0,1,.15.42Z"/><path class="cls-2" d="M84.91,14.44a3.07,3.07,0,0,1,0-.53,1.57,1.57,0,0,1,.17-.46,1,1,0,0,1,.34-.32A1,1,0,0,1,86,13a1,1,0,0,1,.53.13.92.92,0,0,1,.33.32,1.35,1.35,0,0,1,.19.46,3.07,3.07,0,0,1,0,.53A3.17,3.17,0,0,1,87,15a1.44,1.44,0,0,1-.19.46.92.92,0,0,1-.33.32,1.07,1.07,0,0,1-.53.12,1.05,1.05,0,0,1-.52-.12,1,1,0,0,1-.34-.32A1.68,1.68,0,0,1,85,15a3.17,3.17,0,0,1,0-.53Zm-1.23,0a2.7,2.7,0,0,0,.16,1,2.22,2.22,0,0,0,.47.75,2.13,2.13,0,0,0,.73.47,2.93,2.93,0,0,0,1.91,0,2.08,2.08,0,0,0,.74-.47,2.22,2.22,0,0,0,.47-.75,3,3,0,0,0,0-1.94,2,2,0,0,0-.47-.75,2,2,0,0,0-.74-.48,2.77,2.77,0,0,0-1.91,0,2,2,0,0,0-.73.48,2,2,0,0,0-.47.75,2.7,2.7,0,0,0-.16,1Z"/><polygon class="cls-3" points="89.16 10.48 89.16 16.68 90.39 16.68 90.39 10.48 89.16 10.48 89.16 10.48"/><polygon class="cls-3" points="91.4 10.48 91.4 16.68 92.63 16.68 92.63 10.48 91.4 10.48 91.4 10.48"/><path class="cls-2" d="M96.62,14h-2a1.18,1.18,0,0,1,0-.29,1.1,1.1,0,0,1,.17-.32,1,1,0,0,1,.31-.24,1,1,0,0,1,.49-.1.86.86,0,0,1,.67.24,1.34,1.34,0,0,1,.31.71Zm-2,.78h3.24a3.24,3.24,0,0,0-.09-1,2.34,2.34,0,0,0-.4-.86,2.08,2.08,0,0,0-.69-.59,2.14,2.14,0,0,0-1-.22,2.39,2.39,0,0,0-.94.18,2.16,2.16,0,0,0-.72.5,2.22,2.22,0,0,0-.47.75,2.62,2.62,0,0,0-.17.94,2.87,2.87,0,0,0,.16,1,2.2,2.2,0,0,0,.46.75,2.14,2.14,0,0,0,.72.49,2.65,2.65,0,0,0,1,.16,2.35,2.35,0,0,0,1.3-.34,2.08,2.08,0,0,0,.8-1.16H96.69a.79.79,0,0,1-.33.4,1.12,1.12,0,0,1-.64.18,1.11,1.11,0,0,1-.8-.27,1.29,1.29,0,0,1-.3-.87Z"/><path class="cls-2" d="M100.68,15.62a.9.9,0,0,1-.48-.12,1,1,0,0,1-.31-.31,1.49,1.49,0,0,1-.17-.43,2.63,2.63,0,0,1,0-.49,2.42,2.42,0,0,1,0-.47,1,1,0,0,1,.19-.41,1,1,0,0,1,.31-.29.93.93,0,0,1,.45-.1,1,1,0,0,1,.5.11.84.84,0,0,1,.32.3,1.29,1.29,0,0,1,.18.45,2.78,2.78,0,0,1,0,.52,1.49,1.49,0,0,1-.07.47,1.18,1.18,0,0,1-.19.39,1.12,1.12,0,0,1-.33.28,1,1,0,0,1-.46.1Zm2.22.77v-4.2h-1.17v.6h0a1.37,1.37,0,0,0-.56-.56,1.71,1.71,0,0,0-.77-.16,1.86,1.86,0,0,0-.84.18,1.71,1.71,0,0,0-.6.5,2.17,2.17,0,0,0-.37.71,2.82,2.82,0,0,0-.12.83,3.6,3.6,0,0,0,.1.88,2.19,2.19,0,0,0,.35.72,1.93,1.93,0,0,0,.6.49,2.08,2.08,0,0,0,.87.17,1.84,1.84,0,0,0,.77-.17,1.17,1.17,0,0,0,.57-.53h0v.6a1.17,1.17,0,0,1-.23.78.89.89,0,0,1-.76.32,1.21,1.21,0,0,1-.58-.14.71.71,0,0,1-.34-.48H98.6a1.22,1.22,0,0,0,.2.65,1.54,1.54,0,0,0,.47.45,2.2,2.2,0,0,0,.63.26,3.23,3.23,0,0,0,.68.08,3,3,0,0,0,1.23-.21,1.74,1.74,0,0,0,.7-.51,1.37,1.37,0,0,0,.31-.64,2.45,2.45,0,0,0,.08-.62Z"/><path class="cls-2" d="M106.91,14h-2a1.18,1.18,0,0,1,0-.29,1.1,1.1,0,0,1,.17-.32,1,1,0,0,1,.31-.24,1,1,0,0,1,.49-.1.86.86,0,0,1,.67.24,1.34,1.34,0,0,1,.31.71Zm-2,.78h3.24a3.24,3.24,0,0,0-.09-1,2.34,2.34,0,0,0-.4-.86,2.08,2.08,0,0,0-.69-.59,2.14,2.14,0,0,0-1-.22,2.39,2.39,0,0,0-.94.18,2.16,2.16,0,0,0-.72.5,2.22,2.22,0,0,0-.47.75,2.61,2.61,0,0,0-.16.94,2.87,2.87,0,0,0,.15,1,2.36,2.36,0,0,0,.46.75,2.14,2.14,0,0,0,.72.49,2.65,2.65,0,0,0,1,.16,2.35,2.35,0,0,0,1.3-.34,2.08,2.08,0,0,0,.8-1.16H107a.79.79,0,0,1-.33.4,1.12,1.12,0,0,1-.64.18,1.11,1.11,0,0,1-.8-.27,1.29,1.29,0,0,1-.3-.87Z"/></svg>